<svg xmlns="http://www.w3.org/2000/svg" version="1.1" width="634.7mm" height="424.7mm" viewBox = " 0 0 2248.938857 1504.8437569999999" >
<!-- Front--> 
<g transform="translate(22.500018499999996, 22.500018499999996) " > 
<polygon style="stroke:#000000; fill:none; stroke-width:0.035433099999999995" points="0, 0 49.60634, 0 49.60634, 10.62993 99.21268, 10.62993 99.21268, 0 134.64578, 0 134.64578, 10.62993 170.07888, 10.62993 170.07888, 0 205.51198, 0 205.51198, 10.62993 240.94508, 10.62993 240.94508, 0 276.37818, 0 276.37818, 10.62993 311.81128, 10.62993 311.81128, 0 347.24438, 0 347.24438, 10.62993 382.67747999999995, 10.62993 382.67747999999995, 0 418.1105799999999, 0 418.1105799999999, 10.62993 453.54368, 10.62993 453.54368, 0 488.97677999999996, 0 488.97677999999996, 10.62993 524.4098799999999, 10.62993 524.4098799999999, 0 559.8429799999999, 0 559.8429799999999, 10.62993 595.27608, 10.62993 595.27608, 0 630.70918, 0 630.70918, 10.62993 666.1422799999999, 10.62993 666.1422799999999, 0 701.5753799999999, 0 701.5753799999999, 10.62993 737.0084799999998, 10.62993 737.0084799999998, 0 772.4415799999999, 0 772.4415799999999, 10.62993 807.8746799999999, 10.62993 807.8746799999999, 0 843.3077799999999, 0 843.3077799999999, 10.62993 878.74088, 10.62993 878.74088, 0 914.1739799999999, 0 914.1739799999999, 10.62993 963.78032, 10.62993 963.78032, 0 1013.38666, 0 1013.38666, 49.60634 1002.7567300000001, 49.60634 1002.7567300000001, 99.21268 1013.38666, 99.21268 1013.38666, 134.64578 1002.7567300000001, 134.64578 1002.7567300000001, 170.07888 1013.38666, 170.07888 1013.38666, 205.51198 1002.7567300000001, 205.51198 1002.7567300000001, 240.94508 1013.38666, 240.94508 1013.38666, 276.37818 1002.7567300000001, 276.37818 1002.7567300000001, 311.81128 1013.38666, 311.81128 1013.38666, 347.24438 1002.7567300000001, 347.24438 1002.7567300000001, 382.67747999999995 1013.38666, 382.67747999999995 1013.38666, 418.1105799999999 1002.7567300000001, 418.1105799999999 1002.7567300000001, 453.54368 1013.38666, 453.54368 1013.38666, 488.97677999999996 1002.7567300000001, 488.97677999999996 1002.7567300000001, 524.4098799999999 1013.38666, 524.4098799999999 1013.38666, 559.8429799999999 1002.7567300000001, 559.8429799999999 1002.7567300000001, 595.27608 1013.38666, 595.27608 1013.38666, 630.70918 1002.7567300000001, 630.70918 1002.7567300000001, 680.31552 1013.38666, 680.31552 1013.3866599999999, 729.92186 963.78032, 729.92186 963.78032, 719.2919300000001 914.1739799999999, 719.2919300000001 914.1739799999999, 729.92186 878.74088, 729.92186 878.74088, 719.2919300000001 843.3077799999999, 719.2919300000001 843.3077799999999, 729.92186 807.8746799999999, 729.92186 807.8746799999999, 719.2919300000001 772.4415799999999, 719.2919300000001 772.4415799999999, 729.92186 737.0084799999998, 729.92186 737.0084799999998, 719.2919300000001 701.5753799999999, 719.2919300000001 701.5753799999999, 729.92186 666.1422799999999, 729.92186 666.1422799999999, 719.2919300000001 630.70918, 719.2919300000001 630.70918, 729.92186 595.27608, 729.92186 595.27608, 719.2919300000001 559.8429799999999, 719.2919300000001 559.8429799999999, 729.92186 524.4098799999999, 729.92186 524.4098799999999, 719.2919300000001 488.97677999999996, 719.2919300000001 488.97677999999996, 729.92186 453.54368, 729.92186 453.54368, 719.2919300000001 418.1105799999999, 719.2919300000001 418.1105799999999, 729.92186 382.67747999999995, 729.92186 382.67747999999995, 719.2919300000001 347.24438, 719.2919300000001 347.24438, 729.92186 311.81128, 729.92186 311.81128, 719.2919300000001 276.37818, 719.2919300000001 276.37818, 729.92186 240.94508, 729.92186 240.94508, 719.2919300000001 205.51198, 719.2919300000001 205.51198, 729.92186 170.07888, 729.92186 170.07888, 719.2919300000001 134.64578, 719.2919300000001 134.64578, 729.92186 99.21268, 729.92186 99.21268, 719.2919300000001 49.60634, 719.2919300000001 49.60634, 729.92186 0, 729.9218599999999 0, 680.31552 10.62993, 680.31552 10.62993, 630.70918 0, 630.70918 0, 595.27608 10.62993, 595.27608 10.62993, 559.8429799999999 0, 559.8429799999999 0, 524.4098799999999 10.62993, 524.4098799999999 10.62993, 488.97677999999996 0, 488.97677999999996 0, 453.54368 10.62993, 453.54368 10.62993, 418.1105799999999 0, 418.1105799999999 0, 382.67747999999995 10.62993, 382.67747999999995 10.62993, 347.24438 0, 347.24438 0, 311.81128 10.62993, 311.81128 10.62993, 276.37818 0, 276.37818 0, 240.94508 10.62993, 240.94508 10.62993, 205.51198 0, 205.51198 0, 170.07888 10.62993, 170.07888 10.62993, 134.64578 0, 134.64578 0, 99.21268 10.62993, 99.21268 10.62993, 49.60634 0, 49.60634 "/> 
</g>
<!-- Back--> 
<g transform="translate(1035.8866785, 22.500018499999996) " > 
<polygon style="stroke:#000000; fill:none; stroke-width:0.035433099999999995" points="0, 0 49.60634, 0 49.60634, 10.62993 99.21268, 10.62993 99.21268, 0 134.64578, 0 134.64578, 10.62993 170.07888, 10.62993 170.07888, 0 205.51198, 0 205.51198, 10.62993 240.94508, 10.62993 240.94508, 0 276.37818, 0 276.37818, 10.62993 311.81128, 10.62993 311.81128, 0 347.24438, 0 347.24438, 10.62993 382.67747999999995, 10.62993 382.67747999999995, 0 418.1105799999999, 0 418.1105799999999, 10.62993 453.54368, 10.62993 453.54368, 0 488.97677999999996, 0 488.97677999999996, 10.62993 524.4098799999999, 10.62993 524.4098799999999, 0 559.8429799999999, 0 559.8429799999999, 10.62993 595.27608, 10.62993 595.27608, 0 630.70918, 0 630.70918, 10.62993 666.1422799999999, 10.62993 666.1422799999999, 0 701.5753799999999, 0 701.5753799999999, 10.62993 737.0084799999998, 10.62993 737.0084799999998, 0 772.4415799999999, 0 772.4415799999999, 10.62993 807.8746799999999, 10.62993 807.8746799999999, 0 843.3077799999999, 0 843.3077799999999, 10.62993 878.74088, 10.62993 878.74088, 0 914.1739799999999, 0 914.1739799999999, 10.62993 963.78032, 10.62993 963.78032, 0 1013.38666, 0 1013.38666, 49.60634 1002.7567300000001, 49.60634 1002.7567300000001, 99.21268 1013.38666, 99.21268 1013.38666, 134.64578 1002.7567300000001, 134.64578 1002.7567300000001, 170.07888 1013.38666, 170.07888 1013.38666, 205.51198 1002.7567300000001, 205.51198 1002.7567300000001, 240.94508 1013.38666, 240.94508 1013.38666, 276.37818 1002.7567300000001, 276.37818 1002.7567300000001, 311.81128 1013.38666, 311.81128 1013.38666, 347.24438 1002.7567300000001, 347.24438 1002.7567300000001, 382.67747999999995 1013.38666, 382.67747999999995 1013.38666, 418.1105799999999 1002.7567300000001, 418.1105799999999 1002.7567300000001, 453.54368 1013.38666, 453.54368 1013.38666, 488.97677999999996 1002.7567300000001, 488.97677999999996 1002.7567300000001, 524.4098799999999 1013.38666, 524.4098799999999 1013.38666, 559.8429799999999 1002.7567300000001, 559.8429799999999 1002.7567300000001, 595.27608 1013.38666, 595.27608 1013.38666, 630.70918 1002.7567300000001, 630.70918 1002.7567300000001, 680.31552 1013.38666, 680.31552 1013.3866599999999, 729.92186 963.78032, 729.92186 963.78032, 719.2919300000001 914.1739799999999, 719.2919300000001 914.1739799999999, 729.92186 878.74088, 729.92186 878.74088, 719.2919300000001 843.3077799999999, 719.2919300000001 843.3077799999999, 729.92186 807.8746799999999, 729.92186 807.8746799999999, 719.2919300000001 772.4415799999999, 719.2919300000001 772.4415799999999, 729.92186 737.0084799999998, 729.92186 737.0084799999998, 719.2919300000001 701.5753799999999, 719.2919300000001 701.5753799999999, 729.92186 666.1422799999999, 729.92186 666.1422799999999, 719.2919300000001 630.70918, 719.2919300000001 630.70918, 729.92186 595.27608, 729.92186 595.27608, 719.2919300000001 559.8429799999999, 719.2919300000001 559.8429799999999, 729.92186 524.4098799999999, 729.92186 524.4098799999999, 719.2919300000001 488.97677999999996, 719.2919300000001 488.97677999999996, 729.92186 453.54368, 729.92186 453.54368, 719.2919300000001 418.1105799999999, 719.2919300000001 418.1105799999999, 729.92186 382.67747999999995, 729.92186 382.67747999999995, 719.2919300000001 347.24438, 719.2919300000001 347.24438, 729.92186 311.81128, 729.92186 311.81128, 719.2919300000001 276.37818, 719.2919300000001 276.37818, 729.92186 240.94508, 729.92186 240.94508, 719.2919300000001 205.51198, 719.2919300000001 205.51198, 729.92186 170.07888, 729.92186 170.07888, 719.2919300000001 134.64578, 719.2919300000001 134.64578, 729.92186 99.21268, 729.92186 99.21268, 719.2919300000001 49.60634, 719.2919300000001 49.60634, 729.92186 0, 729.9218599999999 0, 680.31552 10.62993, 680.31552 10.62993, 630.70918 0, 630.70918 0, 595.27608 10.62993, 595.27608 10.62993, 559.8429799999999 0, 559.8429799999999 0, 524.4098799999999 10.62993, 524.4098799999999 10.62993, 488.97677999999996 0, 488.97677999999996 0, 453.54368 10.62993, 453.54368 10.62993, 418.1105799999999 0, 418.1105799999999 0, 382.67747999999995 10.62993, 382.67747999999995 10.62993, 347.24438 0, 347.24438 0, 311.81128 10.62993, 311.81128 10.62993, 276.37818 0, 276.37818 0, 240.94508 10.62993, 240.94508 10.62993, 205.51198 0, 205.51198 0, 170.07888 10.62993, 170.07888 10.62993, 134.64578 0, 134.64578 0, 99.21268 10.62993, 99.21268 10.62993, 49.60634 0, 49.60634 "/> 
</g>
<!-- Left--> 
<g transform="translate(2049.2733385, 22.500018499999996) " > 
<polygon style="stroke:#000000; fill:none; stroke-width:0.035433099999999995" points="10.62993, 0 35.433099999999996, 0 35.433099999999996, 10.62993 70.86619999999999, 10.62993 70.86619999999999, 0 106.29929999999999, 0 106.29929999999999, 10.62993 141.73239999999998, 10.62993 141.73239999999998, 0 166.53557, 0 166.53557, 49.60634 177.1655, 49.60634 177.1655, 99.21268 166.53557, 99.21268 166.53557, 134.64578 177.1655, 134.64578 177.1655, 170.07888 166.53557, 170.07888 166.53557, 205.51198 177.1655, 205.51198 177.1655, 240.94508 166.53557, 240.94508 166.53557, 276.37818 177.1655, 276.37818 177.1655, 311.81128 166.53557, 311.81128 166.53557, 347.24438 177.1655, 347.24438 177.1655, 382.67747999999995 166.53557, 382.67747999999995 166.53557, 418.1105799999999 177.1655, 418.1105799999999 177.1655, 453.54368 166.53557, 453.54368 166.53557, 488.97677999999996 177.1655, 488.97677999999996 177.1655, 524.4098799999999 166.53557, 524.4098799999999 166.53557, 559.8429799999999 177.1655, 559.8429799999999 177.1655, 595.27608 166.53557, 595.27608 166.53557, 630.70918 177.1655, 630.70918 177.1655, 680.31552 166.53557, 680.31552 166.53556999999998, 729.92186 141.73239999999998, 729.92186 141.73239999999998, 719.2919300000001 106.29929999999999, 719.2919300000001 106.29929999999999, 729.92186 70.86619999999999, 729.92186 70.86619999999999, 719.2919300000001 35.433099999999996, 719.2919300000001 35.433099999999996, 729.92186 10.62993, 729.9218599999999 10.62993, 680.31552 0, 680.31552 0, 630.70918 10.62993, 630.70918 10.62993, 595.27608 0, 595.27608 0, 559.8429799999999 10.62993, 559.8429799999999 10.62993, 524.4098799999999 0, 524.4098799999999 0, 488.97677999999996 10.62993, 488.97677999999996 10.62993, 453.54368 0, 453.54368 0, 418.1105799999999 10.62993, 418.1105799999999 10.62993, 382.67747999999995 0, 382.67747999999995 0, 347.24438 10.62993, 347.24438 10.62993, 311.81128 0, 311.81128 0, 276.37818 10.62993, 276.37818 10.62993, 240.94508 0, 240.94508 0, 205.51198 10.62993, 205.51198 10.62993, 170.07888 0, 170.07888 0, 134.64578 10.62993, 134.64578 10.62993, 99.21268 0, 99.21268 0, 49.60634 10.62993, 49.60634 "/> 
</g>
<!-- Right--> 
<g transform="translate(2049.2733385, 752.4218784999999) " > 
<polygon style="stroke:#000000; fill:none; stroke-width:0.035433099999999995" points="10.62993, 0 35.433099999999996, 0 35.433099999999996, 10.62993 70.86619999999999, 10.62993 70.86619999999999, 0 106.29929999999999, 0 106.29929999999999, 10.62993 141.73239999999998, 10.62993 141.73239999999998, 0 166.53557, 0 166.53557, 49.60634 177.1655, 49.60634 177.1655, 99.21268 166.53557, 99.21268 166.53557, 134.64578 177.1655, 134.64578 177.1655, 170.07888 166.53557, 170.07888 166.53557, 205.51198 177.1655, 205.51198 177.1655, 240.94508 166.53557, 240.94508 166.53557, 276.37818 177.1655, 276.37818 177.1655, 311.81128 166.53557, 311.81128 166.53557, 347.24438 177.1655, 347.24438 177.1655, 382.67747999999995 166.53557, 382.67747999999995 166.53557, 418.1105799999999 177.1655, 418.1105799999999 177.1655, 453.54368 166.53557, 453.54368 166.53557, 488.97677999999996 177.1655, 488.97677999999996 177.1655, 524.4098799999999 166.53557, 524.4098799999999 166.53557, 559.8429799999999 177.1655, 559.8429799999999 177.1655, 595.27608 166.53557, 595.27608 166.53557, 630.70918 177.1655, 630.70918 177.1655, 680.31552 166.53557, 680.31552 166.53556999999998, 729.92186 141.73239999999998, 729.92186 141.73239999999998, 719.2919300000001 106.29929999999999, 719.2919300000001 106.29929999999999, 729.92186 70.86619999999999, 729.92186 70.86619999999999, 719.2919300000001 35.433099999999996, 719.2919300000001 35.433099999999996, 729.92186 10.62993, 729.9218599999999 10.62993, 680.31552 0, 680.31552 0, 630.70918 10.62993, 630.70918 10.62993, 595.27608 0, 595.27608 0, 559.8429799999999 10.62993, 559.8429799999999 10.62993, 524.4098799999999 0, 524.4098799999999 0, 488.97677999999996 10.62993, 488.97677999999996 10.62993, 453.54368 0, 453.54368 0, 418.1105799999999 10.62993, 418.1105799999999 10.62993, 382.67747999999995 0, 382.67747999999995 0, 347.24438 10.62993, 347.24438 10.62993, 311.81128 0, 311.81128 0, 276.37818 10.62993, 276.37818 10.62993, 240.94508 0, 240.94508 0, 205.51198 10.62993, 205.51198 10.62993, 170.07888 0, 170.07888 0, 134.64578 10.62993, 134.64578 10.62993, 99.21268 0, 99.21268 0, 49.60634 10.62993, 49.60634 "/> 
</g>
<!-- Top--> 
<g transform="translate(22.500018499999996, 752.4218784999999) " > 
<polygon style="stroke:#000000; fill:none; stroke-width:0.035433099999999995" points="10.62993, 10.62993 49.60634, 10.62993 49.60634, 0 99.21268, 0 99.21268, 10.62993 134.64578, 10.62993 134.64578, 0 170.07888, 0 170.07888, 10.62993 205.51198, 10.62993 205.51198, 0 240.94508, 0 240.94508, 10.62993 276.37818, 10.62993 276.37818, 0 311.81128, 0 311.81128, 10.62993 347.24438, 10.62993 347.24438, 0 382.67747999999995, 0 382.67747999999995, 10.62993 418.1105799999999, 10.62993 418.1105799999999, 0 453.54368, 0 453.54368, 10.62993 488.97677999999996, 10.62993 488.97677999999996, 0 524.4098799999999, 0 524.4098799999999, 10.62993 559.8429799999999, 10.62993 559.8429799999999, 0 595.27608, 0 595.27608, 10.62993 630.70918, 10.62993 630.70918, 0 666.1422799999999, 0 666.1422799999999, 10.62993 701.5753799999999, 10.62993 701.5753799999999, 0 737.0084799999998, 0 737.0084799999998, 10.62993 772.4415799999999, 10.62993 772.4415799999999, 0 807.8746799999999, 0 807.8746799999999, 10.62993 843.3077799999999, 10.62993 843.3077799999999, 0 878.74088, 0 878.74088, 10.62993 914.1739799999999, 10.62993 914.1739799999999, 0 963.78032, 0 963.78032, 10.62993 1002.7567300000001, 10.62993 1002.7567300000001, 35.433099999999996 1013.38666, 35.433099999999996 1013.38666, 70.86619999999999 1002.7567300000001, 70.86619999999999 1002.7567300000001, 106.29929999999999 1013.38666, 106.29929999999999 1013.38666, 141.73239999999998 1002.7567300000001, 141.73239999999998 1002.75673, 166.53557 963.78032, 166.53557 963.78032, 177.1655 914.1739799999999, 177.1655 914.1739799999999, 166.53557 878.74088, 166.53557 878.74088, 177.1655 843.3077799999999, 177.1655 843.3077799999999, 166.53557 807.8746799999999, 166.53557 807.8746799999999, 177.1655 772.4415799999999, 177.1655 772.4415799999999, 166.53557 737.0084799999998, 166.53557 737.0084799999998, 177.1655 701.5753799999999, 177.1655 701.5753799999999, 166.53557 666.1422799999999, 166.53557 666.1422799999999, 177.1655 630.70918, 177.1655 630.70918, 166.53557 595.27608, 166.53557 595.27608, 177.1655 559.8429799999999, 177.1655 559.8429799999999, 166.53557 524.4098799999999, 166.53557 524.4098799999999, 177.1655 488.97677999999996, 177.1655 488.97677999999996, 166.53557 453.54368, 166.53557 453.54368, 177.1655 418.1105799999999, 177.1655 418.1105799999999, 166.53557 382.67747999999995, 166.53557 382.67747999999995, 177.1655 347.24438, 177.1655 347.24438, 166.53557 311.81128, 166.53557 311.81128, 177.1655 276.37818, 177.1655 276.37818, 166.53557 240.94508, 166.53557 240.94508, 177.1655 205.51198, 177.1655 205.51198, 166.53557 170.07888, 166.53557 170.07888, 177.1655 134.64578, 177.1655 134.64578, 166.53557 99.21268, 166.53557 99.21268, 177.1655 49.60634, 177.1655 49.60634, 166.53557 10.62993, 166.53556999999998 10.62993, 141.73239999999998 0, 141.73239999999998 0, 106.29929999999999 10.62993, 106.29929999999999 10.62993, 70.86619999999999 0, 70.86619999999999 0, 35.433099999999996 10.62993, 35.433099999999996 "/> 
</g>
<!-- Bottom--> 
<g transform="translate(1035.8866785, 752.4218784999999) " > 
<polygon style="stroke:#000000; fill:none; stroke-width:0.035433099999999995" points="10.62993, 10.62993 49.60634, 10.62993 49.60634, 0 99.21268, 0 99.21268, 10.62993 134.64578, 10.62993 134.64578, 0 170.07888, 0 170.07888, 10.62993 205.51198, 10.62993 205.51198, 0 240.94508, 0 240.94508, 10.62993 276.37818, 10.62993 276.37818, 0 311.81128, 0 311.81128, 10.62993 347.24438, 10.62993 347.24438, 0 382.67747999999995, 0 382.67747999999995, 10.62993 418.1105799999999, 10.62993 418.1105799999999, 0 453.54368, 0 453.54368, 10.62993 488.97677999999996, 10.62993 488.97677999999996, 0 524.4098799999999, 0 524.4098799999999, 10.62993 559.8429799999999, 10.62993 559.8429799999999, 0 595.27608, 0 595.27608, 10.62993 630.70918, 10.62993 630.70918, 0 666.1422799999999, 0 666.1422799999999, 10.62993 701.5753799999999, 10.62993 701.5753799999999, 0 737.0084799999998, 0 737.0084799999998, 10.62993 772.4415799999999, 10.62993 772.4415799999999, 0 807.8746799999999, 0 807.8746799999999, 10.62993 843.3077799999999, 10.62993 843.3077799999999, 0 878.74088, 0 878.74088, 10.62993 914.1739799999999, 10.62993 914.1739799999999, 0 963.78032, 0 963.78032, 10.62993 1002.7567300000001, 10.62993 1002.7567300000001, 35.433099999999996 1013.38666, 35.433099999999996 1013.38666, 70.86619999999999 1002.7567300000001, 70.86619999999999 1002.7567300000001, 106.29929999999999 1013.38666, 106.29929999999999 1013.38666, 141.73239999999998 1002.7567300000001, 141.73239999999998 1002.75673, 166.53557 963.78032, 166.53557 963.78032, 177.1655 914.1739799999999, 177.1655 914.1739799999999, 166.53557 878.74088, 166.53557 878.74088, 177.1655 843.3077799999999, 177.1655 843.3077799999999, 166.53557 807.8746799999999, 166.53557 807.8746799999999, 177.1655 772.4415799999999, 177.1655 772.4415799999999, 166.53557 737.0084799999998, 166.53557 737.0084799999998, 177.1655 701.5753799999999, 177.1655 701.5753799999999, 166.53557 666.1422799999999, 166.53557 666.1422799999999, 177.1655 630.70918, 177.1655 630.70918, 166.53557 595.27608, 166.53557 595.27608, 177.1655 559.8429799999999, 177.1655 559.8429799999999, 166.53557 524.4098799999999, 166.53557 524.4098799999999, 177.1655 488.97677999999996, 177.1655 488.97677999999996, 166.53557 453.54368, 166.53557 453.54368, 177.1655 418.1105799999999, 177.1655 418.1105799999999, 166.53557 382.67747999999995, 166.53557 382.67747999999995, 177.1655 347.24438, 177.1655 347.24438, 166.53557 311.81128, 166.53557 311.81128, 177.1655 276.37818, 177.1655 276.37818, 166.53557 240.94508, 166.53557 240.94508, 177.1655 205.51198, 177.1655 205.51198, 166.53557 170.07888, 166.53557 170.07888, 177.1655 134.64578, 177.1655 134.64578, 166.53557 99.21268, 166.53557 99.21268, 177.1655 49.60634, 177.1655 49.60634, 166.53557 10.62993, 166.53556999999998 10.62993, 141.73239999999998 0, 141.73239999999998 0, 106.29929999999999 10.62993, 106.29929999999999 10.62993, 70.86619999999999 0, 70.86619999999999 0, 35.433099999999996 10.62993, 35.433099999999996 "/> 
</g></svg>